<mxfile host="drawio-plugin" modified="2022-09-14T17:23:25.283Z" agent="5.0 (X11; Linux x86_64) AppleWebKit/537.36 (KHTML, like Gecko) Chrome/98.0.4758.102 Safari/537.36" etag="aoU-Yt2nMQEspwCnCehB" version="15.5.4" type="embed"><diagram id="0-63468UvUWvIAsHKDGt" name="Page-1"><mxGraphModel dx="743" dy="570" grid="0" gridSize="10" guides="1" tooltips="1" connect="1" arrows="1" fold="1" page="1" pageScale="1" pageWidth="1920" pageHeight="1200" background="none" math="0" shadow="0"><root><mxCell id="0"/><mxCell id="1" parent="0"/><mxCell id="2" value="Todo" style="shape=table;startSize=30;container=1;collapsible=1;childLayout=tableLayout;fixedRows=1;rowLines=0;fontStyle=1;align=center;resizeLast=1;spacing=2;spacingBottom=0;bottom=1;swimlaneLine=1;rounded=1;" parent="1" vertex="1"><mxGeometry x="1044" y="606" width="280" height="310" as="geometry"/></mxCell><mxCell id="3" value="" style="shape=partialRectangle;collapsible=0;dropTarget=0;pointerEvents=0;fillColor=none;top=0;left=0;bottom=1;right=0;points=[[0,0.5],[1,0.5]];portConstraint=eastwest;rounded=1;" parent="2" vertex="1"><mxGeometry y="30" width="280" height="30" as="geometry"/></mxCell><mxCell id="4" value="PK" style="shape=partialRectangle;connectable=0;fillColor=none;top=0;left=0;bottom=0;right=0;fontStyle=1;overflow=hidden;rounded=1;" parent="3" vertex="1"><mxGeometry width="30" height="30" as="geometry"><mxRectangle width="30" height="30" as="alternateBounds"/></mxGeometry></mxCell><mxCell id="5" value="id: UUID - DEFAULT gen_random_uuid()" style="shape=partialRectangle;connectable=0;fillColor=none;top=0;left=0;bottom=0;right=0;align=left;spacingLeft=6;fontStyle=5;overflow=hidden;rounded=1;" parent="3" vertex="1"><mxGeometry x="30" width="250" height="30" as="geometry"><mxRectangle width="250" height="30" as="alternateBounds"/></mxGeometry></mxCell><mxCell id="6" value="" style="shape=partialRectangle;collapsible=0;dropTarget=0;pointerEvents=0;fillColor=none;top=0;left=0;bottom=0;right=0;points=[[0,0.5],[1,0.5]];portConstraint=eastwest;rounded=1;" parent="2" vertex="1"><mxGeometry y="60" width="280" height="30" as="geometry"/></mxCell><mxCell id="7" value="" style="shape=partialRectangle;connectable=0;fillColor=none;top=0;left=0;bottom=0;right=0;editable=1;overflow=hidden;rounded=1;" parent="6" vertex="1"><mxGeometry width="30" height="30" as="geometry"><mxRectangle width="30" height="30" as="alternateBounds"/></mxGeometry></mxCell><mxCell id="8" value="title: TEXT - NOT NULL" style="shape=partialRectangle;connectable=0;fillColor=none;top=0;left=0;bottom=0;right=0;align=left;spacingLeft=6;overflow=hidden;rounded=1;" parent="6" vertex="1"><mxGeometry x="30" width="250" height="30" as="geometry"><mxRectangle width="250" height="30" as="alternateBounds"/></mxGeometry></mxCell><mxCell id="12" value="" style="shape=partialRectangle;collapsible=0;dropTarget=0;pointerEvents=0;fillColor=none;top=0;left=0;bottom=0;right=0;points=[[0,0.5],[1,0.5]];portConstraint=eastwest;rounded=1;" parent="2" vertex="1"><mxGeometry y="90" width="280" height="30" as="geometry"/></mxCell><mxCell id="13" value="" style="shape=partialRectangle;connectable=0;fillColor=none;top=0;left=0;bottom=0;right=0;editable=1;overflow=hidden;rounded=1;" parent="12" vertex="1"><mxGeometry width="30" height="30" as="geometry"><mxRectangle width="30" height="30" as="alternateBounds"/></mxGeometry></mxCell><mxCell id="14" value="description: TEXT - NOT NULL" style="shape=partialRectangle;connectable=0;fillColor=none;top=0;left=0;bottom=0;right=0;align=left;spacingLeft=6;overflow=hidden;rounded=1;" parent="12" vertex="1"><mxGeometry x="30" width="250" height="30" as="geometry"><mxRectangle width="250" height="30" as="alternateBounds"/></mxGeometry></mxCell><mxCell id="ECMDfLfK7MkmAGsGthbA-46" value="" style="shape=partialRectangle;collapsible=0;dropTarget=0;pointerEvents=0;fillColor=none;top=0;left=0;bottom=0;right=0;points=[[0,0.5],[1,0.5]];portConstraint=eastwest;rounded=1;" parent="2" vertex="1"><mxGeometry y="120" width="280" height="30" as="geometry"/></mxCell><mxCell id="ECMDfLfK7MkmAGsGthbA-47" value="" style="shape=partialRectangle;connectable=0;fillColor=none;top=0;left=0;bottom=0;right=0;editable=1;overflow=hidden;rounded=1;" parent="ECMDfLfK7MkmAGsGthbA-46" vertex="1"><mxGeometry width="30" height="30" as="geometry"><mxRectangle width="30" height="30" as="alternateBounds"/></mxGeometry></mxCell><mxCell id="ECMDfLfK7MkmAGsGthbA-48" value="completed: BOOLEAN - DEFAULT FALSE" style="shape=partialRectangle;connectable=0;fillColor=none;top=0;left=0;bottom=0;right=0;align=left;spacingLeft=6;overflow=hidden;rounded=1;" parent="ECMDfLfK7MkmAGsGthbA-46" vertex="1"><mxGeometry x="30" width="250" height="30" as="geometry"><mxRectangle width="250" height="30" as="alternateBounds"/></mxGeometry></mxCell><mxCell id="ECMDfLfK7MkmAGsGthbA-49" value="" style="shape=partialRectangle;collapsible=0;dropTarget=0;pointerEvents=0;fillColor=none;top=0;left=0;bottom=0;right=0;points=[[0,0.5],[1,0.5]];portConstraint=eastwest;rounded=1;" parent="2" vertex="1"><mxGeometry y="150" width="280" height="30" as="geometry"/></mxCell><mxCell id="ECMDfLfK7MkmAGsGthbA-50" value="" style="shape=partialRectangle;connectable=0;fillColor=none;top=0;left=0;bottom=0;right=0;editable=1;overflow=hidden;rounded=1;" parent="ECMDfLfK7MkmAGsGthbA-49" vertex="1"><mxGeometry width="30" height="30" as="geometry"><mxRectangle width="30" height="30" as="alternateBounds"/></mxGeometry></mxCell><mxCell id="ECMDfLfK7MkmAGsGthbA-51" value="limit_date: TIMESTAMP" style="shape=partialRectangle;connectable=0;fillColor=none;top=0;left=0;bottom=0;right=0;align=left;spacingLeft=6;overflow=hidden;rounded=1;" parent="ECMDfLfK7MkmAGsGthbA-49" vertex="1"><mxGeometry x="30" width="250" height="30" as="geometry"><mxRectangle width="250" height="30" as="alternateBounds"/></mxGeometry></mxCell><mxCell id="ECMDfLfK7MkmAGsGthbA-40" value="" style="shape=partialRectangle;collapsible=0;dropTarget=0;pointerEvents=0;fillColor=none;top=0;left=0;bottom=0;right=0;points=[[0,0.5],[1,0.5]];portConstraint=eastwest;rounded=1;" parent="2" vertex="1"><mxGeometry y="180" width="280" height="30" as="geometry"/></mxCell><mxCell id="ECMDfLfK7MkmAGsGthbA-41" value="" style="shape=partialRectangle;connectable=0;fillColor=none;top=0;left=0;bottom=0;right=0;editable=1;overflow=hidden;rounded=1;" parent="ECMDfLfK7MkmAGsGthbA-40" vertex="1"><mxGeometry width="30" height="30" as="geometry"><mxRectangle width="30" height="30" as="alternateBounds"/></mxGeometry></mxCell><mxCell id="ECMDfLfK7MkmAGsGthbA-42" value="created_at: TIMESTAMP - DEFAULT NOW()" style="shape=partialRectangle;connectable=0;fillColor=none;top=0;left=0;bottom=0;right=0;align=left;spacingLeft=6;overflow=hidden;rounded=1;" parent="ECMDfLfK7MkmAGsGthbA-40" vertex="1"><mxGeometry x="30" width="250" height="30" as="geometry"><mxRectangle width="250" height="30" as="alternateBounds"/></mxGeometry></mxCell><mxCell id="ECMDfLfK7MkmAGsGthbA-43" value="" style="shape=partialRectangle;collapsible=0;dropTarget=0;pointerEvents=0;fillColor=none;top=0;left=0;bottom=0;right=0;points=[[0,0.5],[1,0.5]];portConstraint=eastwest;rounded=1;" parent="2" vertex="1"><mxGeometry y="210" width="280" height="30" as="geometry"/></mxCell><mxCell id="ECMDfLfK7MkmAGsGthbA-44" value="" style="shape=partialRectangle;connectable=0;fillColor=none;top=0;left=0;bottom=0;right=0;editable=1;overflow=hidden;rounded=1;" parent="ECMDfLfK7MkmAGsGthbA-43" vertex="1"><mxGeometry width="30" height="30" as="geometry"><mxRectangle width="30" height="30" as="alternateBounds"/></mxGeometry></mxCell><mxCell id="ECMDfLfK7MkmAGsGthbA-45" value="deleted_at: TIMESTAMP" style="shape=partialRectangle;connectable=0;fillColor=none;top=0;left=0;bottom=0;right=0;align=left;spacingLeft=6;overflow=hidden;rounded=1;" parent="ECMDfLfK7MkmAGsGthbA-43" vertex="1"><mxGeometry x="30" width="250" height="30" as="geometry"><mxRectangle width="250" height="30" as="alternateBounds"/></mxGeometry></mxCell><mxCell id="ECMDfLfK7MkmAGsGthbA-102" value="" style="shape=partialRectangle;collapsible=0;dropTarget=0;pointerEvents=0;fillColor=none;top=0;left=0;bottom=0;right=0;points=[[0,0.5],[1,0.5]];portConstraint=eastwest;rounded=1;" parent="2" vertex="1"><mxGeometry y="240" width="280" height="30" as="geometry"/></mxCell><mxCell id="ECMDfLfK7MkmAGsGthbA-103" value="FK" style="shape=partialRectangle;connectable=0;fillColor=none;top=1;left=0;bottom=0;right=0;editable=1;overflow=hidden;rounded=1;" parent="ECMDfLfK7MkmAGsGthbA-102" vertex="1"><mxGeometry width="30" height="30" as="geometry"><mxRectangle width="30" height="30" as="alternateBounds"/></mxGeometry></mxCell><mxCell id="ECMDfLfK7MkmAGsGthbA-104" value="created_by: user_id - NOT NULL" style="shape=partialRectangle;connectable=0;fillColor=none;top=1;left=0;bottom=0;right=0;align=left;spacingLeft=6;overflow=hidden;rounded=1;" parent="ECMDfLfK7MkmAGsGthbA-102" vertex="1"><mxGeometry x="30" width="250" height="30" as="geometry"><mxRectangle width="250" height="30" as="alternateBounds"/></mxGeometry></mxCell><mxCell id="xDi6ZBkFSO2JORBMXfVf-41" value="" style="shape=partialRectangle;collapsible=0;dropTarget=0;pointerEvents=0;fillColor=none;top=0;left=0;bottom=0;right=0;points=[[0,0.5],[1,0.5]];portConstraint=eastwest;rounded=1;" parent="2" vertex="1"><mxGeometry y="270" width="280" height="30" as="geometry"/></mxCell><mxCell id="xDi6ZBkFSO2JORBMXfVf-42" value="FK" style="shape=partialRectangle;connectable=0;fillColor=none;top=0;left=0;bottom=0;right=0;editable=1;overflow=hidden;rounded=1;" parent="xDi6ZBkFSO2JORBMXfVf-41" vertex="1"><mxGeometry width="30" height="30" as="geometry"><mxRectangle width="30" height="30" as="alternateBounds"/></mxGeometry></mxCell><mxCell id="xDi6ZBkFSO2JORBMXfVf-43" value="in_group: group_id" style="shape=partialRectangle;connectable=1;fillColor=none;top=0;left=0;bottom=0;right=0;align=left;spacingLeft=6;overflow=hidden;rounded=1;" parent="xDi6ZBkFSO2JORBMXfVf-41" vertex="1"><mxGeometry x="30" width="250" height="30" as="geometry"><mxRectangle width="250" height="30" as="alternateBounds"/></mxGeometry></mxCell><mxCell id="28" value="User" style="shape=table;startSize=30;container=1;collapsible=1;childLayout=tableLayout;fixedRows=1;rowLines=0;fontStyle=1;align=center;resizeLast=1;rounded=1;" parent="1" vertex="1"><mxGeometry x="682" y="284" width="280" height="206.25" as="geometry"/></mxCell><mxCell id="29" value="" style="shape=partialRectangle;collapsible=0;dropTarget=0;pointerEvents=0;fillColor=none;top=0;left=0;bottom=1;right=0;points=[[0,0.5],[1,0.5]];portConstraint=eastwest;rounded=1;" parent="28" vertex="1"><mxGeometry y="30" width="280" height="77" as="geometry"/></mxCell><mxCell id="30" value="PK" style="shape=partialRectangle;connectable=0;fillColor=none;top=0;left=0;bottom=0;right=0;fontStyle=1;overflow=hidden;rounded=1;" parent="29" vertex="1"><mxGeometry width="30" height="77" as="geometry"><mxRectangle width="30" height="77" as="alternateBounds"/></mxGeometry></mxCell><mxCell id="31" value="id: UUID - DEFAULT gen_random_uuid()" style="shape=partialRectangle;connectable=1;fillColor=none;top=0;left=0;bottom=0;right=0;align=left;spacingLeft=6;fontStyle=5;overflow=hidden;rounded=1;points=[[0,0,0,0,0],[0,0.25,0,0,0],[0,0.51,0,0,0],[0,0.75,0,0,0],[0,1,0,0,0],[0.25,0,0,0,0],[0.25,1,0,0,0],[0.5,0,0,0,0],[0.5,1,0,0,0],[0.75,0,0,0,0],[0.75,1,0,0,0],[1,0,0,0,0],[1,0.06,0,0,0],[1,0.22,0,0,0],[1,0.38,0,0,0],[1,0.53,0,0,0],[1,0.69,0,0,0],[1,0.84,0,0,0],[1,1,0,0,0]];" parent="29" vertex="1"><mxGeometry x="30" width="250" height="77" as="geometry"><mxRectangle width="250" height="77" as="alternateBounds"/></mxGeometry></mxCell><mxCell id="38" value="" style="shape=partialRectangle;collapsible=0;dropTarget=0;pointerEvents=0;fillColor=none;top=0;left=0;bottom=0;right=0;points=[[0,0.5],[1,0.5]];portConstraint=eastwest;rounded=1;" parent="28" vertex="1"><mxGeometry y="107" width="280" height="30" as="geometry"/></mxCell><mxCell id="39" value="" style="shape=partialRectangle;connectable=0;fillColor=none;top=0;left=0;bottom=0;right=0;editable=1;overflow=hidden;rounded=1;" parent="38" vertex="1"><mxGeometry width="30" height="30" as="geometry"><mxRectangle width="30" height="30" as="alternateBounds"/></mxGeometry></mxCell><mxCell id="40" value="created_at: TIMESTAMP - DEFAULT NOW()" style="shape=partialRectangle;connectable=0;fillColor=none;top=0;left=0;bottom=0;right=0;align=left;spacingLeft=6;overflow=hidden;rounded=1;" parent="38" vertex="1"><mxGeometry x="30" width="250" height="30" as="geometry"><mxRectangle width="250" height="30" as="alternateBounds"/></mxGeometry></mxCell><mxCell id="81" value="" style="shape=partialRectangle;collapsible=0;dropTarget=0;pointerEvents=0;fillColor=none;top=0;left=0;bottom=0;right=0;points=[[0,0.5],[1,0.5]];portConstraint=eastwest;rounded=1;" parent="28" vertex="1"><mxGeometry y="137" width="280" height="30" as="geometry"/></mxCell><mxCell id="82" value="" style="shape=partialRectangle;connectable=0;fillColor=none;top=0;left=0;bottom=0;right=0;editable=1;overflow=hidden;rounded=1;" parent="81" vertex="1"><mxGeometry width="30" height="30" as="geometry"><mxRectangle width="30" height="30" as="alternateBounds"/></mxGeometry></mxCell><mxCell id="83" value="deleted_at: TIMESTAMP" style="shape=partialRectangle;connectable=0;fillColor=none;top=0;left=0;bottom=0;right=0;align=left;spacingLeft=6;overflow=hidden;rounded=1;" parent="81" vertex="1"><mxGeometry x="30" width="250" height="30" as="geometry"><mxRectangle width="250" height="30" as="alternateBounds"/></mxGeometry></mxCell><mxCell id="77" value="" style="shape=partialRectangle;collapsible=0;dropTarget=0;pointerEvents=0;fillColor=none;top=1;left=0;bottom=0;right=0;points=[[0,0.5],[1,0.5]];portConstraint=eastwest;rounded=1;" parent="28" vertex="1"><mxGeometry y="167" width="280" height="30" as="geometry"/></mxCell><mxCell id="78" value="FK" style="shape=partialRectangle;connectable=0;fillColor=none;top=0;left=0;bottom=0;right=0;editable=1;overflow=hidden;rounded=1;" parent="77" vertex="1"><mxGeometry width="30" height="30" as="geometry"><mxRectangle width="30" height="30" as="alternateBounds"/></mxGeometry></mxCell><mxCell id="79" value="role_id: UUID - NOT NULL" style="shape=partialRectangle;connectable=0;fillColor=none;top=0;left=0;bottom=0;right=0;align=left;spacingLeft=6;overflow=hidden;rounded=1;" parent="77" vertex="1"><mxGeometry x="30" width="250" height="30" as="geometry"><mxRectangle width="250" height="30" as="alternateBounds"/></mxGeometry></mxCell><mxCell id="ECMDfLfK7MkmAGsGthbA-114" value="Group" style="shape=table;startSize=30;container=1;collapsible=1;childLayout=tableLayout;fixedRows=1;rowLines=0;fontStyle=1;align=center;resizeLast=1;rounded=1;" parent="1" vertex="1"><mxGeometry x="1304" y="316" width="280" height="220" as="geometry"/></mxCell><mxCell id="ECMDfLfK7MkmAGsGthbA-115" value="" style="shape=partialRectangle;collapsible=0;dropTarget=0;pointerEvents=0;fillColor=none;top=0;left=0;bottom=1;right=0;points=[[0,0.5],[1,0.5]];portConstraint=eastwest;rounded=1;" parent="ECMDfLfK7MkmAGsGthbA-114" vertex="1"><mxGeometry y="30" width="280" height="30" as="geometry"/></mxCell><mxCell id="ECMDfLfK7MkmAGsGthbA-116" value="PK" style="shape=partialRectangle;connectable=0;fillColor=none;top=0;left=0;bottom=0;right=0;fontStyle=1;overflow=hidden;rounded=1;" parent="ECMDfLfK7MkmAGsGthbA-115" vertex="1"><mxGeometry width="30" height="30" as="geometry"><mxRectangle width="30" height="30" as="alternateBounds"/></mxGeometry></mxCell><mxCell id="ECMDfLfK7MkmAGsGthbA-117" value="id: UUID - DEFAULT gen_random_uuid()" style="shape=partialRectangle;connectable=0;fillColor=none;top=0;left=0;bottom=0;right=0;align=left;spacingLeft=6;fontStyle=5;overflow=hidden;rounded=1;" parent="ECMDfLfK7MkmAGsGthbA-115" vertex="1"><mxGeometry x="30" width="250" height="30" as="geometry"><mxRectangle width="250" height="30" as="alternateBounds"/></mxGeometry></mxCell><mxCell id="ECMDfLfK7MkmAGsGthbA-118" value="" style="shape=partialRectangle;collapsible=0;dropTarget=0;pointerEvents=0;fillColor=none;top=0;left=0;bottom=0;right=0;points=[[0,0.5],[1,0.5]];portConstraint=eastwest;rounded=1;" parent="ECMDfLfK7MkmAGsGthbA-114" vertex="1"><mxGeometry y="60" width="280" height="30" as="geometry"/></mxCell><mxCell id="ECMDfLfK7MkmAGsGthbA-119" value="" style="shape=partialRectangle;connectable=0;fillColor=none;top=0;left=0;bottom=0;right=0;editable=1;overflow=hidden;rounded=1;" parent="ECMDfLfK7MkmAGsGthbA-118" vertex="1"><mxGeometry width="30" height="30" as="geometry"><mxRectangle width="30" height="30" as="alternateBounds"/></mxGeometry></mxCell><mxCell id="ECMDfLfK7MkmAGsGthbA-120" value="name: TEXT - NOT NULL" style="shape=partialRectangle;connectable=0;fillColor=none;top=0;left=0;bottom=0;right=0;align=left;spacingLeft=6;overflow=hidden;rounded=1;" parent="ECMDfLfK7MkmAGsGthbA-118" vertex="1"><mxGeometry x="30" width="250" height="30" as="geometry"><mxRectangle width="250" height="30" as="alternateBounds"/></mxGeometry></mxCell><mxCell id="ECMDfLfK7MkmAGsGthbA-124" value="" style="shape=partialRectangle;collapsible=0;dropTarget=0;pointerEvents=0;fillColor=none;top=0;left=0;bottom=0;right=0;points=[[0,0.5],[1,0.5]];portConstraint=eastwest;rounded=1;" parent="ECMDfLfK7MkmAGsGthbA-114" vertex="1"><mxGeometry y="90" width="280" height="30" as="geometry"/></mxCell><mxCell id="ECMDfLfK7MkmAGsGthbA-125" value="" style="shape=partialRectangle;connectable=0;fillColor=none;top=0;left=0;bottom=0;right=0;editable=1;overflow=hidden;rounded=1;" parent="ECMDfLfK7MkmAGsGthbA-124" vertex="1"><mxGeometry width="30" height="30" as="geometry"><mxRectangle width="30" height="30" as="alternateBounds"/></mxGeometry></mxCell><mxCell id="ECMDfLfK7MkmAGsGthbA-126" value="created_at: TIMESTAMP - DEFAULT NOW()" style="shape=partialRectangle;connectable=0;fillColor=none;top=0;left=0;bottom=0;right=0;align=left;spacingLeft=6;overflow=hidden;rounded=1;" parent="ECMDfLfK7MkmAGsGthbA-124" vertex="1"><mxGeometry x="30" width="250" height="30" as="geometry"><mxRectangle width="250" height="30" as="alternateBounds"/></mxGeometry></mxCell><mxCell id="ECMDfLfK7MkmAGsGthbA-127" value="" style="shape=partialRectangle;collapsible=0;dropTarget=0;pointerEvents=0;fillColor=none;top=0;left=0;bottom=0;right=0;points=[[0,0.5],[1,0.5]];portConstraint=eastwest;rounded=1;" parent="ECMDfLfK7MkmAGsGthbA-114" vertex="1"><mxGeometry y="120" width="280" height="30" as="geometry"/></mxCell><mxCell id="ECMDfLfK7MkmAGsGthbA-128" value="" style="shape=partialRectangle;connectable=0;fillColor=none;top=0;left=0;bottom=0;right=0;editable=1;overflow=hidden;rounded=1;" parent="ECMDfLfK7MkmAGsGthbA-127" vertex="1"><mxGeometry width="30" height="30" as="geometry"><mxRectangle width="30" height="30" as="alternateBounds"/></mxGeometry></mxCell><mxCell id="ECMDfLfK7MkmAGsGthbA-129" value="deleted_at: TIMESTAMP" style="shape=partialRectangle;connectable=0;fillColor=none;top=0;left=0;bottom=0;right=0;align=left;spacingLeft=6;overflow=hidden;rounded=1;" parent="ECMDfLfK7MkmAGsGthbA-127" vertex="1"><mxGeometry x="30" width="250" height="30" as="geometry"><mxRectangle width="250" height="30" as="alternateBounds"/></mxGeometry></mxCell><mxCell id="ECMDfLfK7MkmAGsGthbA-147" value="" style="shape=partialRectangle;collapsible=0;dropTarget=0;pointerEvents=0;fillColor=none;top=1;left=0;bottom=0;right=0;points=[[0,0.5],[1,0.5]];portConstraint=eastwest;rounded=1;" parent="ECMDfLfK7MkmAGsGthbA-114" vertex="1"><mxGeometry y="150" width="280" height="30" as="geometry"/></mxCell><mxCell id="ECMDfLfK7MkmAGsGthbA-148" value="FK" style="shape=partialRectangle;connectable=0;fillColor=none;top=0;left=0;bottom=0;right=0;editable=1;overflow=hidden;rounded=1;" parent="ECMDfLfK7MkmAGsGthbA-147" vertex="1"><mxGeometry width="30" height="30" as="geometry"><mxRectangle width="30" height="30" as="alternateBounds"/></mxGeometry></mxCell><mxCell id="ECMDfLfK7MkmAGsGthbA-149" value="created_by: user_id - NOT NULL" style="shape=partialRectangle;connectable=0;fillColor=none;top=0;left=0;bottom=0;right=0;align=left;spacingLeft=6;overflow=hidden;rounded=1;" parent="ECMDfLfK7MkmAGsGthbA-147" vertex="1"><mxGeometry x="30" width="250" height="30" as="geometry"><mxRectangle width="250" height="30" as="alternateBounds"/></mxGeometry></mxCell><mxCell id="ECMDfLfK7MkmAGsGthbA-130" value="" style="shape=partialRectangle;collapsible=0;dropTarget=0;pointerEvents=0;fillColor=none;top=0;left=0;bottom=0;right=0;points=[[0,0.5],[1,0.5]];portConstraint=eastwest;rounded=1;" parent="ECMDfLfK7MkmAGsGthbA-114" vertex="1"><mxGeometry y="180" width="280" height="30" as="geometry"/></mxCell><mxCell id="ECMDfLfK7MkmAGsGthbA-131" value="FK" style="shape=partialRectangle;connectable=0;fillColor=none;top=0;left=0;bottom=0;right=0;editable=1;overflow=hidden;rounded=1;" parent="ECMDfLfK7MkmAGsGthbA-130" vertex="1"><mxGeometry width="30" height="30" as="geometry"><mxRectangle width="30" height="30" as="alternateBounds"/></mxGeometry></mxCell><mxCell id="ECMDfLfK7MkmAGsGthbA-132" value="admin: user_id - NOT NULL" style="shape=partialRectangle;connectable=0;fillColor=none;top=0;left=0;bottom=0;right=0;align=left;spacingLeft=6;overflow=hidden;rounded=1;" parent="ECMDfLfK7MkmAGsGthbA-130" vertex="1"><mxGeometry x="30" width="250" height="30" as="geometry"><mxRectangle width="250" height="30" as="alternateBounds"/></mxGeometry></mxCell><mxCell id="ECMDfLfK7MkmAGsGthbA-136" value="User_Group" style="shape=table;startSize=30;container=1;collapsible=1;childLayout=tableLayout;fixedRows=1;rowLines=0;fontStyle=1;align=center;resizeLast=1;swimlaneLine=1;swimlaneHead=1;swimlaneBody=1;horizontal=1;top=1;bottom=1;left=1;right=1;rounded=1;" parent="1" vertex="1"><mxGeometry x="1044" y="286" width="180" height="100" as="geometry"/></mxCell><mxCell id="ECMDfLfK7MkmAGsGthbA-137" value="" style="shape=tableRow;horizontal=0;startSize=0;swimlaneHead=0;swimlaneBody=0;fillColor=none;collapsible=0;dropTarget=0;points=[[0,0.5],[1,0.5]];portConstraint=eastwest;top=0;left=0;right=0;bottom=0;rounded=1;" parent="ECMDfLfK7MkmAGsGthbA-136" vertex="1"><mxGeometry y="30" width="180" height="30" as="geometry"/></mxCell><mxCell id="ECMDfLfK7MkmAGsGthbA-138" value="PK" style="shape=partialRectangle;connectable=0;fillColor=none;top=0;left=0;bottom=0;right=0;fontStyle=1;overflow=hidden;rounded=1;" parent="ECMDfLfK7MkmAGsGthbA-137" vertex="1"><mxGeometry width="60" height="30" as="geometry"><mxRectangle width="60" height="30" as="alternateBounds"/></mxGeometry></mxCell><mxCell id="ECMDfLfK7MkmAGsGthbA-139" value="user_id: UUID" style="shape=partialRectangle;connectable=0;fillColor=none;top=0;left=0;bottom=0;right=0;align=left;spacingLeft=6;fontStyle=5;overflow=hidden;rounded=1;" parent="ECMDfLfK7MkmAGsGthbA-137" vertex="1"><mxGeometry x="60" width="120" height="30" as="geometry"><mxRectangle width="120" height="30" as="alternateBounds"/></mxGeometry></mxCell><mxCell id="ECMDfLfK7MkmAGsGthbA-140" value="" style="shape=tableRow;horizontal=0;startSize=0;swimlaneHead=0;swimlaneBody=0;fillColor=none;collapsible=0;dropTarget=0;points=[[0,0.5],[1,0.5]];portConstraint=eastwest;top=0;left=0;right=0;bottom=1;rounded=1;" parent="ECMDfLfK7MkmAGsGthbA-136" vertex="1"><mxGeometry y="60" width="180" height="30" as="geometry"/></mxCell><mxCell id="ECMDfLfK7MkmAGsGthbA-141" value="PK" style="shape=partialRectangle;connectable=0;fillColor=none;top=0;left=0;bottom=0;right=0;fontStyle=1;overflow=hidden;rounded=1;" parent="ECMDfLfK7MkmAGsGthbA-140" vertex="1"><mxGeometry width="60" height="30" as="geometry"><mxRectangle width="60" height="30" as="alternateBounds"/></mxGeometry></mxCell><mxCell id="ECMDfLfK7MkmAGsGthbA-142" value="group_id: UUID" style="shape=partialRectangle;connectable=0;fillColor=none;top=0;left=0;bottom=0;right=0;align=left;spacingLeft=6;fontStyle=5;overflow=hidden;rounded=1;" parent="ECMDfLfK7MkmAGsGthbA-140" vertex="1"><mxGeometry x="60" width="120" height="30" as="geometry"><mxRectangle width="120" height="30" as="alternateBounds"/></mxGeometry></mxCell><mxCell id="ECMDfLfK7MkmAGsGthbA-143" value="" style="edgeStyle=entityRelationEdgeStyle;fontSize=12;html=1;endArrow=ERoneToMany;rounded=1;strokeWidth=1;startSize=15;endSize=15;jumpStyle=arc;exitX=1;exitY=0.22;exitDx=0;exitDy=0;entryX=0;entryY=0.5;entryDx=0;entryDy=0;startArrow=ERmandOne;startFill=0;exitPerimeter=0;" parent="1" source="31" target="ECMDfLfK7MkmAGsGthbA-137" edge="1"><mxGeometry width="100" height="100" relative="1" as="geometry"><mxPoint x="1214" y="486" as="sourcePoint"/><mxPoint x="1314" y="386" as="targetPoint"/></mxGeometry></mxCell><mxCell id="ECMDfLfK7MkmAGsGthbA-144" value="" style="edgeStyle=entityRelationEdgeStyle;fontSize=12;html=1;endArrow=ERoneToMany;rounded=1;strokeWidth=1;startSize=15;endSize=15;jumpStyle=arc;exitX=0;exitY=0.5;exitDx=0;exitDy=0;entryX=1;entryY=0.5;entryDx=0;entryDy=0;startArrow=ERmandOne;startFill=0;" parent="1" source="ECMDfLfK7MkmAGsGthbA-115" target="ECMDfLfK7MkmAGsGthbA-140" edge="1"><mxGeometry width="100" height="100" relative="1" as="geometry"><mxPoint x="1054" y="341" as="sourcePoint"/><mxPoint x="974" y="341" as="targetPoint"/></mxGeometry></mxCell><mxCell id="ECMDfLfK7MkmAGsGthbA-150" style="rounded=1;jumpStyle=arc;orthogonalLoop=1;jettySize=auto;html=1;entryX=0;entryY=0.5;entryDx=0;entryDy=0;strokeWidth=1;startArrow=ERmandOne;startFill=0;startSize=15;endSize=15;endArrow=ERoneToMany;endFill=0;exitX=1;exitY=0.69;exitDx=0;exitDy=0;edgeStyle=orthogonalEdgeStyle;exitPerimeter=0;" parent="1" source="31" target="ECMDfLfK7MkmAGsGthbA-130" edge="1"><mxGeometry relative="1" as="geometry"><Array as="points"><mxPoint x="1006" y="367"/><mxPoint x="1006" y="511"/></Array><mxPoint x="977" y="465" as="sourcePoint"/></mxGeometry></mxCell><mxCell id="ECMDfLfK7MkmAGsGthbA-151" style="rounded=1;jumpStyle=arc;orthogonalLoop=1;jettySize=auto;html=1;strokeWidth=1;startArrow=ERmandOne;startFill=0;startSize=15;endSize=15;endArrow=ERoneToMany;endFill=0;exitX=1;exitY=0.38;exitDx=0;exitDy=0;entryX=0;entryY=0.5;entryDx=0;entryDy=0;edgeStyle=orthogonalEdgeStyle;exitPerimeter=0;" parent="1" source="31" target="ECMDfLfK7MkmAGsGthbA-147" edge="1"><mxGeometry relative="1" as="geometry"><mxPoint x="1055" y="411" as="sourcePoint"/><mxPoint x="1246" y="417" as="targetPoint"/><Array as="points"><mxPoint x="1021" y="343"/><mxPoint x="1021" y="481"/></Array></mxGeometry></mxCell><mxCell id="xDi6ZBkFSO2JORBMXfVf-40" style="rounded=1;jumpStyle=arc;orthogonalLoop=1;jettySize=auto;html=1;entryX=0;entryY=0.5;entryDx=0;entryDy=0;strokeWidth=1;startArrow=ERmandOne;startFill=0;startSize=15;endSize=15;endArrow=ERoneToMany;endFill=0;exitX=1;exitY=0.84;exitDx=0;exitDy=0;edgeStyle=orthogonalEdgeStyle;exitPerimeter=0;" parent="1" source="31" target="ECMDfLfK7MkmAGsGthbA-102" edge="1"><mxGeometry relative="1" as="geometry"><Array as="points"><mxPoint x="990" y="379"/><mxPoint x="990" y="861"/></Array><mxPoint x="972" y="379.7500000000001" as="sourcePoint"/><mxPoint x="1314" y="521" as="targetPoint"/></mxGeometry></mxCell><mxCell id="xDi6ZBkFSO2JORBMXfVf-50" value="" style="edgeStyle=orthogonalEdgeStyle;fontSize=12;html=1;endArrow=ERoneToMany;startArrow=none;rounded=1;startSize=14;endSize=14;entryX=1;entryY=0.5;entryDx=0;entryDy=0;exitX=1;exitY=0.5;exitDx=0;exitDy=0;endFill=0;startFill=0;" parent="1" source="ECMDfLfK7MkmAGsGthbA-115" target="xDi6ZBkFSO2JORBMXfVf-43" edge="1"><mxGeometry width="100" height="100" relative="1" as="geometry"><mxPoint x="1184" y="558" as="sourcePoint"/><mxPoint x="1084" y="658" as="targetPoint"/><Array as="points"><mxPoint x="1643" y="361"/><mxPoint x="1643" y="891"/></Array></mxGeometry></mxCell><mxCell id="58" value="Role" style="shape=table;startSize=30;container=1;collapsible=1;childLayout=tableLayout;fixedRows=1;rowLines=0;fontStyle=1;align=center;resizeLast=1;rounded=1;" parent="1" vertex="1"><mxGeometry x="322" y="421" width="280" height="160" as="geometry"/></mxCell><mxCell id="59" value="" style="shape=partialRectangle;collapsible=0;dropTarget=0;pointerEvents=0;fillColor=none;top=0;left=0;bottom=1;right=0;points=[[0,0.5],[1,0.5]];portConstraint=eastwest;rounded=1;" parent="58" vertex="1"><mxGeometry y="30" width="280" height="30" as="geometry"/></mxCell><mxCell id="60" value="PK" style="shape=partialRectangle;connectable=0;fillColor=none;top=0;left=0;bottom=0;right=0;fontStyle=1;overflow=hidden;rounded=1;" parent="59" vertex="1"><mxGeometry width="30" height="30" as="geometry"><mxRectangle width="30" height="30" as="alternateBounds"/></mxGeometry></mxCell><mxCell id="61" value="id: UUID - DEFAULT gen_random_uuid()" style="shape=partialRectangle;connectable=0;fillColor=none;top=0;left=0;bottom=0;right=0;align=left;spacingLeft=6;fontStyle=5;overflow=hidden;rounded=1;" parent="59" vertex="1"><mxGeometry x="30" width="250" height="30" as="geometry"><mxRectangle width="250" height="30" as="alternateBounds"/></mxGeometry></mxCell><mxCell id="62" value="" style="shape=partialRectangle;collapsible=0;dropTarget=0;pointerEvents=0;fillColor=none;top=0;left=0;bottom=0;right=0;points=[[0,0.5],[1,0.5]];portConstraint=eastwest;rounded=1;" parent="58" vertex="1"><mxGeometry y="60" width="280" height="30" as="geometry"/></mxCell><mxCell id="63" value="" style="shape=partialRectangle;connectable=0;fillColor=none;top=0;left=0;bottom=0;right=0;editable=1;overflow=hidden;rounded=1;" parent="62" vertex="1"><mxGeometry width="30" height="30" as="geometry"><mxRectangle width="30" height="30" as="alternateBounds"/></mxGeometry></mxCell><mxCell id="64" value="name: TEXT - NOT NULL" style="shape=partialRectangle;connectable=0;fillColor=none;top=0;left=0;bottom=0;right=0;align=left;spacingLeft=6;overflow=hidden;rounded=1;" parent="62" vertex="1"><mxGeometry x="30" width="250" height="30" as="geometry"><mxRectangle width="250" height="30" as="alternateBounds"/></mxGeometry></mxCell><mxCell id="65" value="" style="shape=partialRectangle;collapsible=0;dropTarget=0;pointerEvents=0;fillColor=none;top=0;left=0;bottom=0;right=0;points=[[0,0.5],[1,0.5]];portConstraint=eastwest;rounded=1;" parent="58" vertex="1"><mxGeometry y="90" width="280" height="30" as="geometry"/></mxCell><mxCell id="66" value="" style="shape=partialRectangle;connectable=0;fillColor=none;top=0;left=0;bottom=0;right=0;editable=1;overflow=hidden;rounded=1;" parent="65" vertex="1"><mxGeometry width="30" height="30" as="geometry"><mxRectangle width="30" height="30" as="alternateBounds"/></mxGeometry></mxCell><mxCell id="67" value="created_at: TIMESTAMP - DEFAULT NOW()" style="shape=partialRectangle;connectable=0;fillColor=none;top=0;left=0;bottom=0;right=0;align=left;spacingLeft=6;overflow=hidden;rounded=1;" parent="65" vertex="1"><mxGeometry x="30" width="250" height="30" as="geometry"><mxRectangle width="250" height="30" as="alternateBounds"/></mxGeometry></mxCell><mxCell id="68" value="" style="shape=partialRectangle;collapsible=0;dropTarget=0;pointerEvents=0;fillColor=none;top=0;left=0;bottom=0;right=0;points=[[0,0.5],[1,0.5]];portConstraint=eastwest;rounded=1;" parent="58" vertex="1"><mxGeometry y="120" width="280" height="30" as="geometry"/></mxCell><mxCell id="69" value="" style="shape=partialRectangle;connectable=0;fillColor=none;top=0;left=0;bottom=0;right=0;editable=1;overflow=hidden;rounded=1;" parent="68" vertex="1"><mxGeometry width="30" height="30" as="geometry"><mxRectangle width="30" height="30" as="alternateBounds"/></mxGeometry></mxCell><mxCell id="70" value="deleted_at: TIMESTAMP" style="shape=partialRectangle;connectable=0;fillColor=none;top=0;left=0;bottom=0;right=0;align=left;spacingLeft=6;overflow=hidden;rounded=1;" parent="68" vertex="1"><mxGeometry x="30" width="250" height="30" as="geometry"><mxRectangle width="250" height="30" as="alternateBounds"/></mxGeometry></mxCell><mxCell id="80" style="rounded=1;jumpStyle=arc;orthogonalLoop=1;jettySize=auto;html=1;entryX=0;entryY=0.5;entryDx=0;entryDy=0;strokeWidth=1;startArrow=ERmandOne;startFill=0;startSize=15;endSize=15;endArrow=ERoneToMany;endFill=0;exitX=1;exitY=0.5;exitDx=0;exitDy=0;" parent="1" source="59" target="77" edge="1"><mxGeometry relative="1" as="geometry"><mxPoint x="616" y="459" as="sourcePoint"/><mxPoint x="1054" y="871" as="targetPoint"/></mxGeometry></mxCell></root></mxGraphModel></diagram></mxfile>